<svg width="2048" height="2048" viewBox="0 0 2048 2048" fill="none" xmlns="http://www.w3.org/2000/svg">
<g clip-path="url(#clip0_37_3)">
<path fill-rule="evenodd" clip-rule="evenodd" d="M2048 410.877C2048 184.108 1863.89 0 1637.12 0H410.877C184.108 0 0 184.108 0 410.877V1637.12C0 1863.89 184.108 2048 410.877 2048H1637.12C1863.89 2048 2048 1863.89 2048 1637.12V410.877Z" fill="white"/>
<path d="M501 844.8C457.8 844.8 419.7 835.5 386.7 816.9C354.3 797.7 328.8 771.3 310.2 737.7C292.2 704.1 283.2 665.1 283.2 620.7C283.2 575.7 292.2 536.7 310.2 503.7C328.8 470.1 354.3 444 386.7 425.4C419.7 406.2 457.8 396.6 501 396.6C544.2 396.6 582 406.2 614.4 425.4C647.4 444 672.9 470.1 690.9 503.7C709.5 536.7 718.8 575.7 718.8 620.7C718.8 665.1 709.5 704.1 690.9 737.7C672.9 771.3 647.4 797.7 614.4 816.9C582 835.5 544.2 844.8 501 844.8ZM501 758.4C539.4 758.4 569.4 746.4 591 722.4C612.6 697.8 623.4 663.9 623.4 620.7C623.4 577.5 612.6 543.9 591 519.9C569.4 495.3 539.4 483 501 483C463.2 483 433.2 495.3 411 519.9C389.4 543.9 378.6 577.5 378.6 620.7C378.6 663.9 389.4 697.8 411 722.4C433.2 746.4 463.2 758.4 501 758.4ZM1007.77 1033.8C975.97 1033.8 945.37 1030.2 915.97 1023C886.57 1015.8 857.77 1004.1 829.57 987.9L861.07 909.6C882.07 922.2 904.57 931.5 928.57 937.5C953.17 944.1 977.77 947.4 1002.37 947.4C1042.57 947.4 1072.27 938.7 1091.47 921.3C1110.67 904.5 1120.27 879 1120.27 844.8V796.2C1100.47 809.4 1079.77 819.3 1058.17 825.9C1037.17 832.5 1015.87 835.8 994.27 835.8C957.07 835.8 924.37 826.5 896.17 807.9C868.57 789.3 847.27 763.8 832.27 731.4C817.27 698.4 809.77 660 809.77 616.2C809.77 572.4 817.27 534.3 832.27 501.9C847.27 468.9 868.57 443.1 896.17 424.5C924.37 405.9 957.07 396.6 994.27 396.6C1043.47 396.6 1090.87 413.1 1136.47 446.1L1145.47 407.4H1213.87V852C1213.87 910.8 1196.47 955.8 1161.67 987C1126.87 1018.2 1075.57 1033.8 1007.77 1033.8ZM1016.77 749.4C1034.17 749.4 1051.57 746.7 1068.97 741.3C1086.97 735.9 1104.07 728.1 1120.27 717.9V514.5C1104.07 503.7 1086.97 495.9 1068.97 491.1C1051.57 485.7 1034.17 483 1016.77 483C980.17 483 952.27 494.7 933.07 518.1C913.87 541.5 904.27 574.2 904.27 616.2C904.27 658.2 913.87 690.9 933.07 714.3C952.27 737.7 980.17 749.4 1016.77 749.4ZM1545.14 844.8C1524.14 844.8 1506.14 837.6 1491.14 823.2C1476.74 808.2 1469.54 790.2 1469.54 769.2C1469.54 747.6 1476.74 729.6 1491.14 715.2C1506.14 700.8 1524.14 693.6 1545.14 693.6C1566.14 693.6 1583.84 700.8 1598.24 715.2C1613.24 729.6 1620.74 747.6 1620.74 769.2C1620.74 790.2 1613.24 808.2 1598.24 823.2C1583.84 837.6 1566.14 844.8 1545.14 844.8ZM314.7 1684V1257.4H384L393 1297C416.4 1279.6 439.8 1267 463.2 1259.2C487.2 1250.8 512.4 1246.6 538.8 1246.6C588.6 1246.6 626.7 1260.7 653.1 1288.9C680.1 1316.5 693.6 1356.7 693.6 1409.5V1684H600V1423.9C600 1390.9 593.4 1367.5 580.2 1353.7C567.6 1339.9 546.3 1333 516.3 1333C497.1 1333 478.5 1335.7 460.5 1341.1C443.1 1345.9 425.7 1353.7 408.3 1364.5V1684H314.7ZM1047.37 1694.8C973.57 1694.8 915.37 1675 872.77 1635.4C830.77 1595.2 809.77 1540.3 809.77 1470.7C809.77 1425.7 818.77 1386.4 836.77 1352.8C855.37 1319.2 881.17 1293.1 914.17 1274.5C947.17 1255.9 985.27 1246.6 1028.47 1246.6C1071.07 1246.6 1107.97 1255.3 1139.17 1272.7C1170.37 1290.1 1194.37 1314.7 1211.17 1346.5C1228.57 1377.7 1237.27 1414.6 1237.27 1457.2C1237.27 1464.4 1236.97 1471.9 1236.37 1479.7C1236.37 1486.9 1235.47 1494.7 1233.67 1503.1H905.17C910.57 1539.7 925.27 1567.3 949.27 1585.9C973.87 1604.5 1006.87 1613.8 1048.27 1613.8C1095.07 1613.8 1140.37 1599.7 1184.17 1571.5L1220.17 1641.7C1192.57 1660.3 1164.97 1673.8 1137.37 1682.2C1109.77 1690.6 1079.77 1694.8 1047.37 1694.8ZM906.07 1430.2H1144.57C1140.37 1397.2 1128.07 1372 1107.67 1354.6C1087.87 1336.6 1061.17 1327.6 1027.57 1327.6C995.17 1327.6 968.47 1336.6 947.47 1354.6C926.47 1372 912.67 1397.2 906.07 1430.2ZM1388.54 1684L1289.54 1257.4H1375.04L1444.34 1568.8L1512.74 1305.1H1582.04L1650.44 1568.8L1720.64 1257.4H1800.74L1701.74 1684H1611.74L1545.14 1424.8L1478.54 1684H1388.54Z" fill="#0A0A0A"/>
</g>
<defs>
<clipPath id="clip0_37_3">
<rect width="2048" height="2048" fill="#0A0A0A"/>
</clipPath>
</defs>
</svg>
